<?xml version="1.0" encoding="UTF-8" standalone="no"?><!DOCTYPE svg PUBLIC "-//W3C//DTD SVG 1.1//EN" "http://www.w3.org/Graphics/SVG/1.1/DTD/svg11.dtd"><svg width="100%" height="100%" viewBox="0 0 4490 4626" version="1.1" xmlns="http://www.w3.org/2000/svg" xmlns:xlink="http://www.w3.org/1999/xlink" xml:space="preserve" xmlns:serif="http://www.serif.com/" style="fill-rule:evenodd;clip-rule:evenodd;stroke-linecap:round;stroke-linejoin:round;stroke-miterlimit:1.5;"><rect id="white_logo_no_text" x="0" y="0" width="4489.48" height="4625.43" style="fill:none;"/><g><path d="M3747.18,1153.78c-0,-193.6 -157.179,-350.779 -350.779,-350.779l-2310.25,-0c-193.6,-0 -350.779,157.179 -350.779,350.779l-0,2310.25c-0,193.6 157.179,350.779 350.779,350.779l2310.25,-0c193.6,-0 350.779,-157.179 350.779,-350.779l-0,-2310.25Zm-112.979,40.785c-0,-153.755 -124.83,-278.585 -278.586,-278.585l-2228.68,0c-153.755,0 -278.585,124.83 -278.585,278.585l0,2228.68c0,153.756 124.83,278.586 278.585,278.586l2228.68,-0c153.756,-0 278.586,-124.83 278.586,-278.586l-0,-2228.68Z" style="fill:#fff;stroke:#fff;stroke-width:29.17px;"/><path d="M729.909,2348.19l-236.175,-0.031" style="fill:none;stroke:#fff;stroke-width:108.33px;"/><path d="M729.934,1788.58l-236.175,-0.03" style="fill:none;stroke:#fff;stroke-width:108.33px;"/><path d="M288.154,2348.24c0.004,-56.709 46.048,-102.747 102.758,-102.742c56.709,0.004 102.746,46.048 102.742,102.757c-0.004,56.71 -46.048,102.747 -102.758,102.743c-56.709,-0.004 -102.746,-46.048 -102.742,-102.758Z" style="fill:#fff;stroke:#fff;stroke-width:62.5px;"/><path d="M729.909,2912.19l-236.175,-0.031" style="fill:none;stroke:#fff;stroke-width:108.33px;"/><path d="M288.154,2912.24c0.004,-56.709 46.048,-102.747 102.758,-102.742c56.709,0.004 102.746,46.048 102.742,102.757c-0.004,56.71 -46.048,102.747 -102.758,102.743c-56.709,-0.004 -102.746,-46.048 -102.742,-102.758Z" style="fill:#fff;stroke:#fff;stroke-width:62.5px;"/><path d="M288.197,1788.63c0.004,-56.709 46.048,-102.747 102.758,-102.742c56.709,0.004 102.747,46.048 102.742,102.757c-0.004,56.71 -46.048,102.747 -102.758,102.743c-56.709,-0.004 -102.746,-46.048 -102.742,-102.758Z" style="fill:#fff;stroke:#fff;stroke-width:62.5px;"/><path d="M3759.07,1594.02l236.22,-0.085" style="fill:none;stroke:#fff;stroke-width:108.33px;"/><path d="M3759.35,2155.06l236.174,-0.074" style="fill:none;stroke:#fff;stroke-width:108.33px;"/><path d="M3759.59,2714.68l236.174,-0.074" style="fill:none;stroke:#fff;stroke-width:108.33px;"/><path d="M4200.91,1595.5c0.021,56.71 -46.003,102.767 -102.712,102.788c-56.71,0.021 -102.767,-46.002 -102.788,-102.712c-0.021,-56.709 46.002,-102.767 102.712,-102.788c56.709,-0.021 102.767,46.003 102.788,102.712Z" style="fill:#fff;stroke:#fff;stroke-width:62.5px;"/><path d="M4201.11,2154.81c0.021,56.709 -46.003,102.767 -102.712,102.788c-56.709,0.021 -102.767,-46.003 -102.788,-102.712c-0.021,-56.709 46.003,-102.767 102.712,-102.788c56.709,-0.021 102.767,46.003 102.788,102.712Z" style="fill:#fff;stroke:#fff;stroke-width:62.5px;"/><path d="M4201.32,2714.43c0.021,56.709 -46.003,102.767 -102.712,102.788c-56.71,0.021 -102.768,-46.003 -102.789,-102.712c-0.021,-56.709 46.003,-102.767 102.713,-102.788c56.709,-0.021 102.767,46.003 102.788,102.712Z" style="fill:#fff;stroke:#fff;stroke-width:62.5px;"/><path d="M1462.82,810.621l0.057,-236.221" style="fill:none;stroke:#fff;stroke-width:108.33px;"/><path d="M2023.86,810.661l0.069,-236.174" style="fill:none;stroke:#fff;stroke-width:108.33px;"/><path d="M2583.47,810.779l0.069,-236.174" style="fill:none;stroke:#fff;stroke-width:108.33px;"/><path d="M3143.44,810.881l0.069,-236.175" style="fill:none;stroke:#fff;stroke-width:108.33px;"/><path d="M1464.56,368.78c56.71,0.013 102.74,46.064 102.726,102.774c-0.013,56.709 -46.065,102.739 -102.774,102.726c-56.709,-0.013 -102.739,-46.065 -102.726,-102.774c0.013,-56.71 46.065,-102.74 102.774,-102.726Z" style="fill:#fff;stroke:#fff;stroke-width:62.5px;"/><path d="M2023.87,368.906c56.71,0.014 102.74,46.065 102.726,102.775c-0.013,56.709 -46.065,102.739 -102.774,102.726c-56.709,-0.014 -102.739,-46.065 -102.726,-102.774c0.013,-56.71 46.065,-102.74 102.774,-102.727Z" style="fill:#fff;stroke:#fff;stroke-width:62.5px;"/><path d="M2583.49,369.042c56.71,0.014 102.74,46.065 102.726,102.775c-0.013,56.709 -46.065,102.739 -102.774,102.726c-56.709,-0.013 -102.739,-46.065 -102.726,-102.774c0.013,-56.71 46.065,-102.74 102.774,-102.727Z" style="fill:#fff;stroke:#fff;stroke-width:62.5px;"/><path d="M3143.46,369.16c56.71,0.013 102.74,46.065 102.727,102.774c-0.014,56.709 -46.065,102.739 -102.775,102.726c-56.709,-0.013 -102.739,-46.065 -102.726,-102.774c0.014,-56.71 46.065,-102.74 102.774,-102.726Z" style="fill:#fff;stroke:#fff;stroke-width:62.5px;"/><path d="M2004.43,3814.91l-0.068,236.175" style="fill:none;stroke:#fff;stroke-width:108.33px;"/><path d="M2004.41,4256.65c-56.709,-0.013 -102.739,-46.065 -102.726,-102.774c0.014,-56.71 46.065,-102.74 102.775,-102.726c56.709,0.013 102.739,46.064 102.726,102.774c-0.014,56.709 -46.065,102.739 -102.775,102.726Z" style="fill:#fff;stroke:#fff;stroke-width:62.5px;"/><path d="M2583.54,3814.91l-0.069,236.175" style="fill:none;stroke:#fff;stroke-width:108.33px;"/><path d="M2583.44,4256.65c-56.709,-0.013 -102.739,-46.065 -102.726,-102.774c0.013,-56.71 46.065,-102.74 102.774,-102.726c56.71,0.013 102.74,46.064 102.726,102.774c-0.013,56.709 -46.065,102.739 -102.774,102.726Z" style="fill:#fff;stroke:#fff;stroke-width:62.5px;"/><path d="M3143.51,3814.91l-0.069,236.175" style="fill:none;stroke:#fff;stroke-width:108.33px;"/><path d="M3143.41,4256.65c-56.709,-0.013 -102.739,-46.065 -102.726,-102.774c0.014,-56.71 46.065,-102.74 102.774,-102.726c56.71,0.013 102.74,46.064 102.727,102.774c-0.014,56.709 -46.065,102.739 -102.775,102.726Z" style="fill:#fff;stroke:#fff;stroke-width:62.5px;"/><path d="M1462.87,3814.91l-0.069,236.175" style="fill:none;stroke:#fff;stroke-width:108.33px;"/><path d="M1464.51,4256.65c-56.709,-0.013 -102.739,-46.065 -102.726,-102.774c0.013,-56.71 46.065,-102.74 102.774,-102.726c56.71,0.013 102.74,46.064 102.726,102.774c-0.013,56.709 -46.065,102.739 -102.774,102.726Z" style="fill:#fff;stroke:#fff;stroke-width:62.5px;"/></g><g><path d="M288.197,1218.04c0.004,-56.709 46.048,-102.747 102.758,-102.743c56.709,0.005 102.747,46.049 102.742,102.758c-0.004,56.71 -46.048,102.747 -102.758,102.743c-56.709,-0.004 -102.746,-46.049 -102.742,-102.758Zm3910.44,2044.73c0.021,56.709 -46.003,102.767 -102.713,102.788c-56.709,0.021 -102.767,-46.003 -102.788,-102.712c-0.021,-56.709 46.003,-102.767 102.712,-102.788c56.71,-0.021 102.768,46.003 102.789,102.712Zm-1272.66,-1622.28c0,-78.263 -63.539,-141.802 -141.802,-141.802c-78.263,-0 -141.802,63.539 -141.802,141.802l0,1218.6c0,78.262 63.539,141.802 141.802,141.802c78.263,-0 141.802,-63.54 141.802,-141.802l0,-1218.6Zm543.808,-0c-0,-78.263 -63.54,-141.802 -141.802,-141.802c-78.263,-0 -141.802,63.539 -141.802,141.802l-0,1218.6c-0,78.262 63.539,141.802 141.802,141.802c78.262,-0 141.802,-63.54 141.802,-141.802l-0,-1218.6Zm-1629.86,-0c0,-78.263 -63.539,-141.802 -141.802,-141.802c-78.263,-0 -141.802,63.539 -141.802,141.802l0,1218.6c0,78.262 63.539,141.802 141.802,141.802c78.263,-0 141.802,-63.54 141.802,-141.802l0,-1218.6Zm-543,-0c0,-78.263 -63.539,-141.802 -141.802,-141.802c-78.263,-0 -141.802,63.539 -141.802,141.802l0,1218.6c0,78.262 63.539,141.802 141.802,141.802c78.263,-0 141.802,-63.54 141.802,-141.802l0,-1218.6Zm1086.14,-0c0,-78.263 -63.539,-141.802 -141.802,-141.802c-78.262,-0 -141.802,63.539 -141.802,141.802l0,1218.6c0,78.262 63.54,141.802 141.802,141.802c78.263,-0 141.802,-63.54 141.802,-141.802l0,-1218.6Z" style="fill:#fff;stroke:#fff;stroke-width:62.5px;"/><path d="M1155.13,3000.88c0.245,72.565 26.077,152.38 79.337,203.605c73.517,70.71 192.158,82.07 286.482,54.569c35.165,-10.253 69.832,-26.737 96.963,-51.774c17.736,-16.368 30.782,-36.731 41.606,-58.119c22.754,-44.963 38.612,-97.56 38.612,-148.281m543.142,-0c0.099,29.293 34.497,47.64 54.328,61.762c36.969,26.325 75.176,53.095 87.592,99.526c13.167,49.238 -3.445,102.044 -25.654,146.022c-3.257,6.451 -6.756,12.782 -10.36,19.046c-19.044,33.092 -56.456,77.081 -28.42,115.934c8.048,11.153 19.4,20.812 30.368,28.791c18.58,13.517 34.656,21.978 55.106,33.045c36.612,19.812 66.948,37.992 109.568,34.403c44.496,-3.747 86.494,-20.042 128.577,-33.54c24.149,-7.746 50.527,-16.076 75.971,-8.891c26.813,7.572 39.887,32.792 56.225,52.801c10.775,13.196 19.031,23.265 32.35,32.796c29.592,21.177 66.54,26.06 101.65,30.903c13.937,1.923 27.954,3.355 41.999,4.177c51.722,3.026 113.361,-1.776 149.656,-43.921c8.718,-10.122 15.112,-21.688 19.968,-34.074c10.277,-26.217 13.121,-55.675 13.192,-83.614c0.075,-29.29 0.125,-59.498 -5.152,-88.501c-2.019,-11.096 -4.949,-22.289 -9.26,-32.744c-3.437,-8.334 -7.836,-16.239 -13.557,-23.233c-21.29,-26.028 -55.258,-27.601 -86.38,-23.163c-9.058,1.291 -18.042,3.14 -26.93,5.313c-18.928,4.628 -37.631,10.13 -56.478,15.079c-47.782,12.55 -111.716,30.13 -151.452,-10.404c-27.787,-28.346 -24.36,-74.145 -20.395,-110.138c6.897,-62.597 17.514,-124.39 20.488,-187.375m-543,-1502.39c-0.308,-82.613 -33.641,-170.761 -100.609,-221.978c-104.793,-80.144 -266.796,-79.431 -362.524,15.359c-23.414,23.184 -39.684,52.124 -52.198,82.354c-16.121,38.945 -27.684,82.05 -27.669,124.458m1628.91,-0.386c-0.273,-73.2 -26.544,-151.93 -79.584,-203.952c-101.212,-99.267 -281.413,-102.527 -383.446,-2.658c-29.868,29.234 -48.566,68.351 -61.694,107.509c-10.649,31.766 -18.288,65.633 -18.276,99.294m-1629.05,-0c-0.102,-27.462 -2.747,-55.243 -10.428,-81.714c-5.928,-20.431 -14.071,-39.647 -25.478,-57.676c-24.61,-38.896 -58.368,-67.749 -97.006,-89c-64.105,-35.258 -141.641,-49.591 -213.111,-54.152c-25.031,-1.598 -59.904,-2.406 -84.927,-2.112c-29.092,0.341 -58.178,1.128 -87.263,1.883c-29.402,0.762 -58.787,2.181 -88.194,2.67c-57.971,0.962 -115.866,1.2 -173.558,-5.127m3720.72,2042.85c-124.366,-1.724 -248.521,7.331 -372.855,6.69c-51.686,-0.266 -103.981,-1.524 -155.225,-9.312c-40.201,-6.109 -80.3,-16.126 -115.577,-37.029c-37.074,-21.967 -67.735,-58.75 -86.9,-97.032c-14.676,-29.315 -22.055,-46.426 -31.271,-77.704c-8.946,-30.361 -15.566,-63.031 -15.619,-94.842" style="fill:none;stroke:#fff;stroke-width:108.33px;"/></g></svg>